# xmcd
#
# Track frame offsets:
#	150
#	35668
#	69723
#	111774
#	145599
#	181963
#	215787
#	251268
#
# Disc length: 3922 seconds
#
# Revision: 0
# Processed by: cddbd v1.5.2PL0 Copyright (c) Steve Scherf et al.
# Submitted via: dBpowerAMP V4.0
#
DISCID=740f5008
DTITLE=shiva space technology presents - israel 2
DYEAR=1900
DGENRE=psykodelik
TTITLE0=cyan - alien
TTITLE1=zoofax - aladdin
TTITLE2=quadra - karana agama
TTITLE3=luminous - blue shiva
TTITLE4=esoteric space - odysseus
TTITLE5=luminous - fantasy rmx
TTITLE6=verros - red light
TTITLE7=quadra - makara rmx
EXTD=
EXTT0=
EXTT1=
EXTT2=
EXTT3=
EXTT4=
EXTT5=
EXTT6=
EXTT7=
PLAYORDER=
